<svg width="40" height="41" viewBox="0 0 40 41" fill="none" xmlns="http://www.w3.org/2000/svg">
<g filter="url(#filter0_d)">
<circle cx="20" cy="16.7906" r="12" fill="#FF7F56"/>
<path d="M17.3109 21.234C17.2124 21.1511 17.1342 21.0526 17.0809 20.9442C17.0275 20.8357 17.0001 20.7195 17.0001 20.6021C17.0001 20.4847 17.0275 20.3685 17.0809 20.2601C17.1342 20.1517 17.2124 20.0532 17.3109 19.9702L21.4355 16.4927L17.3109 13.0152C17.1122 12.8476 17.0005 12.6203 17.0005 12.3833C17.0005 12.1463 17.1122 11.919 17.3109 11.7514C17.5097 11.5838 17.7793 11.4897 18.0604 11.4897C18.3415 11.4897 18.6111 11.5838 18.8098 11.7514L23.6892 15.8653C23.7877 15.9482 23.8659 16.0467 23.9193 16.1551C23.9726 16.2636 24.0001 16.3798 24.0001 16.4972C24.0001 16.6146 23.9726 16.7308 23.9193 16.8392C23.8659 16.9477 23.7877 17.0461 23.6892 17.1291L18.8098 21.243C18.4059 21.5835 17.7255 21.5835 17.3109 21.234Z" fill="white"/>
</g>
<defs>
<filter id="filter0_d" x="0" y="0.790619" width="40" height="40" filterUnits="userSpaceOnUse" color-interpolation-filters="sRGB">
<feFlood flood-opacity="0" result="BackgroundImageFix"/>
<feColorMatrix in="SourceAlpha" type="matrix" values="0 0 0 0 0 0 0 0 0 0 0 0 0 0 0 0 0 0 127 0" result="hardAlpha"/>
<feOffset dy="4"/>
<feGaussianBlur stdDeviation="4"/>
<feComposite in2="hardAlpha" operator="out"/>
<feColorMatrix type="matrix" values="0 0 0 0 0 0 0 0 0 0 0 0 0 0 0 0 0 0 0.25 0"/>
<feBlend mode="normal" in2="BackgroundImageFix" result="effect1_dropShadow"/>
<feBlend mode="normal" in="SourceGraphic" in2="effect1_dropShadow" result="shape"/>
</filter>
</defs>
</svg>
