<svg width="28" height="28" viewBox="0 0 28 28" fill="none" xmlns="http://www.w3.org/2000/svg">
<g filter="url(#filter0_d)">
<path fill-rule="evenodd" clip-rule="evenodd" d="M11 6.06168C10.2044 6.06168 9.44129 6.36416 8.87868 6.90258C8.31607 7.441 8 8.17126 8 8.9327V14.6748C8 15.4362 8.31607 16.1665 8.87868 16.7049C9.44129 17.2433 10.2044 17.5458 11 17.5458H17C17.7956 17.5458 18.5587 17.2433 19.1213 16.7049C19.6839 16.1665 20 15.4362 20 14.6748V8.9327C20 8.17126 19.6839 7.441 19.1213 6.90258C18.5587 6.36416 17.7956 6.06168 17 6.06168H11ZM16.238 11.0481C16.2919 10.993 16.3339 10.9284 16.3617 10.8578C16.3895 10.7872 16.4025 10.712 16.3999 10.6366C16.3973 10.5612 16.3793 10.4871 16.3468 10.4184C16.3143 10.3496 16.2679 10.2877 16.2104 10.2362C16.1529 10.1846 16.0853 10.1443 16.0115 10.1178C15.9378 10.0912 15.8593 10.0787 15.7805 10.0812C15.7017 10.0837 15.6242 10.1009 15.5524 10.1321C15.4806 10.1632 15.4159 10.2075 15.362 10.2626L13.5122 12.1517L12.5984 11.3748C12.4787 11.2796 12.325 11.2326 12.1697 11.2438C12.0144 11.255 11.8698 11.3235 11.7664 11.4349C11.663 11.5462 11.6088 11.6917 11.6154 11.8406C11.6219 11.9894 11.6887 12.13 11.8016 12.2327L13.1516 13.3811C13.2684 13.4804 13.4211 13.5322 13.5772 13.5254C13.7333 13.5186 13.8804 13.4539 13.9874 13.3449L16.2374 11.0481H16.238Z" fill="#703EDB"/>
</g>
<defs>
<filter id="filter0_d" x="0" y="0.061676" width="28" height="27.4841" filterUnits="userSpaceOnUse" color-interpolation-filters="sRGB">
<feFlood flood-opacity="0" result="BackgroundImageFix"/>
<feColorMatrix in="SourceAlpha" type="matrix" values="0 0 0 0 0 0 0 0 0 0 0 0 0 0 0 0 0 0 127 0" result="hardAlpha"/>
<feOffset dy="2"/>
<feGaussianBlur stdDeviation="4"/>
<feComposite in2="hardAlpha" operator="out"/>
<feColorMatrix type="matrix" values="0 0 0 0 0 0 0 0 0 0 0 0 0 0 0 0 0 0 0.1 0"/>
<feBlend mode="normal" in2="BackgroundImageFix" result="effect1_dropShadow"/>
<feBlend mode="normal" in="SourceGraphic" in2="effect1_dropShadow" result="shape"/>
</filter>
</defs>
</svg>
