<svg width="400" height="50" viewBox="0 0 400 50" fill="none" xmlns="http://www.w3.org/2000/svg">
<rect width="400" height="50" rx="25" fill="#0A60FF"/>
<path d="M187.62 19.228V29H185.66V22.644L183.042 29H181.558L178.926 22.644V29H176.966V19.228H179.192L182.3 26.494L185.408 19.228H187.62ZM189.054 25.094C189.054 24.31 189.208 23.6147 189.516 23.008C189.833 22.4013 190.258 21.9347 190.79 21.608C191.331 21.2813 191.933 21.118 192.596 21.118C193.174 21.118 193.678 21.2347 194.108 21.468C194.546 21.7013 194.896 21.9953 195.158 22.35V21.244H197.132V29H195.158V27.866C194.906 28.23 194.556 28.5333 194.108 28.776C193.669 29.0093 193.16 29.126 192.582 29.126C191.928 29.126 191.331 28.958 190.79 28.622C190.258 28.286 189.833 27.8147 189.516 27.208C189.208 26.592 189.054 25.8873 189.054 25.094ZM195.158 25.122C195.158 24.646 195.064 24.24 194.878 23.904C194.691 23.5587 194.439 23.2973 194.122 23.12C193.804 22.9333 193.464 22.84 193.1 22.84C192.736 22.84 192.4 22.9287 192.092 23.106C191.784 23.2833 191.532 23.5447 191.336 23.89C191.149 24.226 191.056 24.6273 191.056 25.094C191.056 25.5607 191.149 25.9713 191.336 26.326C191.532 26.6713 191.784 26.9373 192.092 27.124C192.409 27.3107 192.745 27.404 193.1 27.404C193.464 27.404 193.804 27.3153 194.122 27.138C194.439 26.9513 194.691 26.69 194.878 26.354C195.064 26.0087 195.158 25.598 195.158 25.122ZM202.014 29.126C201.379 29.126 200.81 29.014 200.306 28.79C199.802 28.5567 199.401 28.244 199.102 27.852C198.813 27.46 198.654 27.026 198.626 26.55H200.6C200.637 26.8487 200.782 27.096 201.034 27.292C201.295 27.488 201.617 27.586 202 27.586C202.373 27.586 202.663 27.5113 202.868 27.362C203.083 27.2127 203.19 27.0213 203.19 26.788C203.19 26.536 203.059 26.3493 202.798 26.228C202.546 26.0973 202.14 25.9573 201.58 25.808C201.001 25.668 200.525 25.5233 200.152 25.374C199.788 25.2247 199.471 24.996 199.2 24.688C198.939 24.38 198.808 23.9647 198.808 23.442C198.808 23.0127 198.929 22.6207 199.172 22.266C199.424 21.9113 199.779 21.6313 200.236 21.426C200.703 21.2207 201.249 21.118 201.874 21.118C202.798 21.118 203.535 21.3513 204.086 21.818C204.637 22.2753 204.94 22.896 204.996 23.68H203.12C203.092 23.372 202.961 23.1293 202.728 22.952C202.504 22.7653 202.201 22.672 201.818 22.672C201.463 22.672 201.188 22.7373 200.992 22.868C200.805 22.9987 200.712 23.1807 200.712 23.414C200.712 23.6753 200.843 23.876 201.104 24.016C201.365 24.1467 201.771 24.282 202.322 24.422C202.882 24.562 203.344 24.7067 203.708 24.856C204.072 25.0053 204.385 25.2387 204.646 25.556C204.917 25.864 205.057 26.2747 205.066 26.788C205.066 27.236 204.94 27.6373 204.688 27.992C204.445 28.3467 204.091 28.6267 203.624 28.832C203.167 29.028 202.63 29.126 202.014 29.126ZM213.997 21.244V29H212.023V28.02C211.771 28.356 211.44 28.622 211.029 28.818C210.628 29.0047 210.189 29.098 209.713 29.098C209.106 29.098 208.57 28.972 208.103 28.72C207.636 28.4587 207.268 28.0807 206.997 27.586C206.736 27.082 206.605 26.4847 206.605 25.794V21.244H208.565V25.514C208.565 26.13 208.719 26.606 209.027 26.942C209.335 27.2687 209.755 27.432 210.287 27.432C210.828 27.432 211.253 27.2687 211.561 26.942C211.869 26.606 212.023 26.13 212.023 25.514V21.244H213.997ZM220.523 29L217.891 25.696V29H215.931V18.64H217.891V24.534L220.495 21.244H223.043L219.627 25.136L223.071 29H220.523Z" fill="white"/>
</svg>
