<svg width="400" height="50" viewBox="0 0 400 50" fill="none" xmlns="http://www.w3.org/2000/svg">
<rect x="0.5" y="0.5" width="399" height="49" rx="24.5" fill="white" stroke="#DADADA"/>
<path fill-rule="evenodd" clip-rule="evenodd" d="M77.1836 26.1476C77.1836 25.3883 77.1155 24.6583 76.9889 23.9574H66.9043V28.0993H72.667C72.4187 29.4378 71.6643 30.5718 70.5303 31.3311V34.0177H73.9908C76.0155 32.1536 77.1836 29.4086 77.1836 26.1476Z" fill="#4285F4"/>
<path fill-rule="evenodd" clip-rule="evenodd" d="M66.9047 36.6119C69.7957 36.6119 72.2196 35.6531 73.9912 34.0178L70.5307 31.3311C69.5719 31.9736 68.3453 32.3532 66.9047 32.3532C64.1158 32.3532 61.7553 30.4696 60.9133 27.9387H57.3359V30.713C59.0978 34.2124 62.719 36.6119 66.9047 36.6119Z" fill="#34A853"/>
<path fill-rule="evenodd" clip-rule="evenodd" d="M60.913 27.9387C60.6989 27.2963 60.5772 26.61 60.5772 25.9043C60.5772 25.1986 60.6989 24.5123 60.913 23.8698V21.0956H57.3357C56.6105 22.5411 56.1968 24.1765 56.1968 25.9043C56.1968 27.6321 56.6105 29.2675 57.3357 30.713L60.913 27.9387Z" fill="#FBBC05"/>
<path fill-rule="evenodd" clip-rule="evenodd" d="M66.9047 19.4553C68.4768 19.4553 69.8882 19.9955 70.998 21.0565L74.0691 17.9854C72.2147 16.2576 69.7909 15.1965 66.9047 15.1965C62.719 15.1965 59.0978 17.596 57.3359 21.0955L60.9133 23.8698C61.7553 21.3388 64.1158 19.4553 66.9047 19.4553Z" fill="#EA4335"/>
<path d="M95.382 21.228C96.4087 21.228 97.3093 21.4287 98.084 21.83C98.868 22.2313 99.47 22.8053 99.89 23.552C100.319 24.2893 100.534 25.148 100.534 26.128C100.534 27.108 100.319 27.9667 99.89 28.704C99.47 29.432 98.868 29.9967 98.084 30.398C97.3093 30.7993 96.4087 31 95.382 31H91.966V21.228H95.382ZM95.312 29.334C96.3387 29.334 97.132 29.054 97.692 28.494C98.252 27.934 98.532 27.1453 98.532 26.128C98.532 25.1107 98.252 24.3173 97.692 23.748C97.132 23.1693 96.3387 22.88 95.312 22.88H93.926V29.334H95.312ZM101.497 27.094C101.497 26.31 101.651 25.6147 101.959 25.008C102.276 24.4013 102.701 23.9347 103.233 23.608C103.774 23.2813 104.376 23.118 105.039 23.118C105.618 23.118 106.122 23.2347 106.551 23.468C106.99 23.7013 107.34 23.9953 107.601 24.35V23.244H109.575V31H107.601V29.866C107.349 30.23 106.999 30.5333 106.551 30.776C106.112 31.0093 105.604 31.126 105.025 31.126C104.372 31.126 103.774 30.958 103.233 30.622C102.701 30.286 102.276 29.8147 101.959 29.208C101.651 28.592 101.497 27.8873 101.497 27.094ZM107.601 27.122C107.601 26.646 107.508 26.24 107.321 25.904C107.134 25.5587 106.882 25.2973 106.565 25.12C106.248 24.9333 105.907 24.84 105.543 24.84C105.179 24.84 104.843 24.9287 104.535 25.106C104.227 25.2833 103.975 25.5447 103.779 25.89C103.592 26.226 103.499 26.6273 103.499 27.094C103.499 27.5607 103.592 27.9713 103.779 28.326C103.975 28.6713 104.227 28.9373 104.535 29.124C104.852 29.3107 105.188 29.404 105.543 29.404C105.907 29.404 106.248 29.3153 106.565 29.138C106.882 28.9513 107.134 28.69 107.321 28.354C107.508 28.0087 107.601 27.598 107.601 27.122ZM115.045 24.854H113.687V31H111.699V24.854H110.817V23.244H111.699V22.852C111.699 21.9 111.97 21.2 112.511 20.752C113.053 20.304 113.869 20.094 114.961 20.122V21.774C114.485 21.7647 114.154 21.844 113.967 22.012C113.781 22.18 113.687 22.4833 113.687 22.922V23.244H115.045V24.854ZM118.598 24.854V28.606C118.598 28.8673 118.658 29.0587 118.78 29.18C118.91 29.292 119.125 29.348 119.424 29.348H120.334V31H119.102C117.45 31 116.624 30.1973 116.624 28.592V24.854H115.7V23.244H116.624V21.326H118.598V23.244H120.334V24.854H118.598ZM121.239 27.094C121.239 26.31 121.393 25.6147 121.701 25.008C122.019 24.4013 122.443 23.9347 122.975 23.608C123.517 23.2813 124.119 23.118 124.781 23.118C125.36 23.118 125.864 23.2347 126.293 23.468C126.732 23.7013 127.082 23.9953 127.343 24.35V23.244H129.317V31H127.343V29.866C127.091 30.23 126.741 30.5333 126.293 30.776C125.855 31.0093 125.346 31.126 124.767 31.126C124.114 31.126 123.517 30.958 122.975 30.622C122.443 30.286 122.019 29.8147 121.701 29.208C121.393 28.592 121.239 27.8873 121.239 27.094ZM127.343 27.122C127.343 26.646 127.25 26.24 127.063 25.904C126.877 25.5587 126.625 25.2973 126.307 25.12C125.99 24.9333 125.649 24.84 125.285 24.84C124.921 24.84 124.585 24.9287 124.277 25.106C123.969 25.2833 123.717 25.5447 123.521 25.89C123.335 26.226 123.241 26.6273 123.241 27.094C123.241 27.5607 123.335 27.9713 123.521 28.326C123.717 28.6713 123.969 28.9373 124.277 29.124C124.595 29.3107 124.931 29.404 125.285 29.404C125.649 29.404 125.99 29.3153 126.307 29.138C126.625 28.9513 126.877 28.69 127.063 28.354C127.25 28.0087 127.343 27.598 127.343 27.122ZM133.192 24.448C133.444 24.0373 133.77 23.7153 134.172 23.482C134.582 23.2487 135.049 23.132 135.572 23.132V25.19H135.054C134.438 25.19 133.971 25.3347 133.654 25.624C133.346 25.9133 133.192 26.4173 133.192 27.136V31H131.232V23.244H133.192V24.448ZM149.86 23.132C150.812 23.132 151.577 23.426 152.156 24.014C152.744 24.5927 153.038 25.4047 153.038 26.45V31H151.078V26.716C151.078 26.1093 150.924 25.6473 150.616 25.33C150.308 25.0033 149.888 24.84 149.356 24.84C148.824 24.84 148.399 25.0033 148.082 25.33C147.774 25.6473 147.62 26.1093 147.62 26.716V31H145.66V26.716C145.66 26.1093 145.506 25.6473 145.198 25.33C144.89 25.0033 144.47 24.84 143.938 24.84C143.396 24.84 142.967 25.0033 142.65 25.33C142.342 25.6473 142.188 26.1093 142.188 26.716V31H140.228V23.244H142.188V24.182C142.44 23.8553 142.762 23.5987 143.154 23.412C143.555 23.2253 143.994 23.132 144.47 23.132C145.076 23.132 145.618 23.2627 146.094 23.524C146.57 23.776 146.938 24.14 147.2 24.616C147.452 24.168 147.816 23.8087 148.292 23.538C148.777 23.2673 149.3 23.132 149.86 23.132ZM162.108 26.954C162.108 27.234 162.089 27.486 162.052 27.71H156.382C156.428 28.27 156.624 28.7087 156.97 29.026C157.315 29.3433 157.74 29.502 158.244 29.502C158.972 29.502 159.49 29.1893 159.798 28.564H161.912C161.688 29.3107 161.258 29.9267 160.624 30.412C159.989 30.888 159.21 31.126 158.286 31.126C157.539 31.126 156.867 30.9627 156.27 30.636C155.682 30.3 155.22 29.8287 154.884 29.222C154.557 28.6153 154.394 27.9153 154.394 27.122C154.394 26.3193 154.557 25.6147 154.884 25.008C155.21 24.4013 155.668 23.9347 156.256 23.608C156.844 23.2813 157.52 23.118 158.286 23.118C159.023 23.118 159.681 23.2767 160.26 23.594C160.848 23.9113 161.3 24.364 161.618 24.952C161.944 25.5307 162.108 26.198 162.108 26.954ZM160.078 26.394C160.068 25.89 159.886 25.4887 159.532 25.19C159.177 24.882 158.743 24.728 158.23 24.728C157.744 24.728 157.334 24.8773 156.998 25.176C156.671 25.4653 156.47 25.8713 156.396 26.394H160.078ZM167.836 23.132C168.76 23.132 169.507 23.426 170.076 24.014C170.646 24.5927 170.93 25.4047 170.93 26.45V31H168.97V26.716C168.97 26.1 168.816 25.6287 168.508 25.302C168.2 24.966 167.78 24.798 167.248 24.798C166.707 24.798 166.278 24.966 165.96 25.302C165.652 25.6287 165.498 26.1 165.498 26.716V31H163.538V23.244H165.498V24.21C165.76 23.874 166.091 23.6127 166.492 23.426C166.903 23.23 167.351 23.132 167.836 23.132ZM175.832 23.118C176.411 23.118 176.919 23.2347 177.358 23.468C177.797 23.692 178.142 23.986 178.394 24.35V23.244H180.368V31.056C180.368 31.7747 180.223 32.414 179.934 32.974C179.645 33.5433 179.211 33.9913 178.632 34.318C178.053 34.654 177.353 34.822 176.532 34.822C175.431 34.822 174.525 34.5653 173.816 34.052C173.116 33.5387 172.719 32.8387 172.626 31.952H174.572C174.675 32.3067 174.894 32.5867 175.23 32.792C175.575 33.0067 175.991 33.114 176.476 33.114C177.045 33.114 177.507 32.9413 177.862 32.596C178.217 32.26 178.394 31.7467 178.394 31.056V29.852C178.142 30.216 177.792 30.5193 177.344 30.762C176.905 31.0047 176.401 31.126 175.832 31.126C175.179 31.126 174.581 30.958 174.04 30.622C173.499 30.286 173.069 29.8147 172.752 29.208C172.444 28.592 172.29 27.8873 172.29 27.094C172.29 26.31 172.444 25.6147 172.752 25.008C173.069 24.4013 173.494 23.9347 174.026 23.608C174.567 23.2813 175.169 23.118 175.832 23.118ZM178.394 27.122C178.394 26.646 178.301 26.24 178.114 25.904C177.927 25.5587 177.675 25.2973 177.358 25.12C177.041 24.9333 176.7 24.84 176.336 24.84C175.972 24.84 175.636 24.9287 175.328 25.106C175.02 25.2833 174.768 25.5447 174.572 25.89C174.385 26.226 174.292 26.6273 174.292 27.094C174.292 27.5607 174.385 27.9713 174.572 28.326C174.768 28.6713 175.02 28.9373 175.328 29.124C175.645 29.3107 175.981 29.404 176.336 29.404C176.7 29.404 177.041 29.3153 177.358 29.138C177.675 28.9513 177.927 28.69 178.114 28.354C178.301 28.0087 178.394 27.598 178.394 27.122ZM185.32 23.118C185.899 23.118 186.408 23.2347 186.846 23.468C187.285 23.692 187.63 23.986 187.882 24.35V23.244H189.856V31.056C189.856 31.7747 189.712 32.414 189.422 32.974C189.133 33.5433 188.699 33.9913 188.12 34.318C187.542 34.654 186.842 34.822 186.02 34.822C184.919 34.822 184.014 34.5653 183.304 34.052C182.604 33.5387 182.208 32.8387 182.114 31.952H184.06C184.163 32.3067 184.382 32.5867 184.718 32.792C185.064 33.0067 185.479 33.114 185.964 33.114C186.534 33.114 186.996 32.9413 187.35 32.596C187.705 32.26 187.882 31.7467 187.882 31.056V29.852C187.63 30.216 187.28 30.5193 186.832 30.762C186.394 31.0047 185.89 31.126 185.32 31.126C184.667 31.126 184.07 30.958 183.528 30.622C182.987 30.286 182.558 29.8147 182.24 29.208C181.932 28.592 181.778 27.8873 181.778 27.094C181.778 26.31 181.932 25.6147 182.24 25.008C182.558 24.4013 182.982 23.9347 183.514 23.608C184.056 23.2813 184.658 23.118 185.32 23.118ZM187.882 27.122C187.882 26.646 187.789 26.24 187.602 25.904C187.416 25.5587 187.164 25.2973 186.846 25.12C186.529 24.9333 186.188 24.84 185.824 24.84C185.46 24.84 185.124 24.9287 184.816 25.106C184.508 25.2833 184.256 25.5447 184.06 25.89C183.874 26.226 183.78 26.6273 183.78 27.094C183.78 27.5607 183.874 27.9713 184.06 28.326C184.256 28.6713 184.508 28.9373 184.816 29.124C185.134 29.3107 185.47 29.404 185.824 29.404C186.188 29.404 186.529 29.3153 186.846 29.138C187.164 28.9513 187.416 28.69 187.602 28.354C187.789 28.0087 187.882 27.598 187.882 27.122ZM199.093 23.244V31H197.119V30.02C196.867 30.356 196.535 30.622 196.125 30.818C195.723 31.0047 195.285 31.098 194.809 31.098C194.202 31.098 193.665 30.972 193.199 30.72C192.732 30.4587 192.363 30.0807 192.093 29.586C191.831 29.082 191.701 28.4847 191.701 27.794V23.244H193.661V27.514C193.661 28.13 193.815 28.606 194.123 28.942C194.431 29.2687 194.851 29.432 195.383 29.432C195.924 29.432 196.349 29.2687 196.657 28.942C196.965 28.606 197.119 28.13 197.119 27.514V23.244H199.093ZM205.325 23.132C206.249 23.132 206.995 23.426 207.565 24.014C208.134 24.5927 208.419 25.4047 208.419 26.45V31H206.459V26.716C206.459 26.1 206.305 25.6287 205.997 25.302C205.689 24.966 205.269 24.798 204.737 24.798C204.195 24.798 203.766 24.966 203.449 25.302C203.141 25.6287 202.987 26.1 202.987 26.716V31H201.027V23.244H202.987V24.21C203.248 23.874 203.579 23.6127 203.981 23.426C204.391 23.23 204.839 23.132 205.325 23.132ZM209.778 27.094C209.778 26.31 209.932 25.6147 210.24 25.008C210.558 24.4013 210.982 23.9347 211.514 23.608C212.056 23.2813 212.658 23.118 213.32 23.118C213.899 23.118 214.403 23.2347 214.832 23.468C215.271 23.7013 215.621 23.9953 215.882 24.35V23.244H217.856V31H215.882V29.866C215.63 30.23 215.28 30.5333 214.832 30.776C214.394 31.0093 213.885 31.126 213.306 31.126C212.653 31.126 212.056 30.958 211.514 30.622C210.982 30.286 210.558 29.8147 210.24 29.208C209.932 28.592 209.778 27.8873 209.778 27.094ZM215.882 27.122C215.882 26.646 215.789 26.24 215.602 25.904C215.416 25.5587 215.164 25.2973 214.846 25.12C214.529 24.9333 214.188 24.84 213.824 24.84C213.46 24.84 213.124 24.9287 212.816 25.106C212.508 25.2833 212.256 25.5447 212.06 25.89C211.874 26.226 211.78 26.6273 211.78 27.094C211.78 27.5607 211.874 27.9713 212.06 28.326C212.256 28.6713 212.508 28.9373 212.816 29.124C213.134 29.3107 213.47 29.404 213.824 29.404C214.188 29.404 214.529 29.3153 214.846 29.138C215.164 28.9513 215.416 28.69 215.602 28.354C215.789 28.0087 215.882 27.598 215.882 27.122ZM224.363 31L221.731 27.696V31H219.771V20.64H221.731V26.534L224.335 23.244H226.883L223.467 27.136L226.911 31H224.363ZM227.442 27.094C227.442 26.31 227.596 25.6147 227.904 25.008C228.222 24.4013 228.646 23.9347 229.178 23.608C229.72 23.2813 230.322 23.118 230.984 23.118C231.563 23.118 232.067 23.2347 232.496 23.468C232.935 23.7013 233.285 23.9953 233.546 24.35V23.244H235.52V31H233.546V29.866C233.294 30.23 232.944 30.5333 232.496 30.776C232.058 31.0093 231.549 31.126 230.97 31.126C230.317 31.126 229.72 30.958 229.178 30.622C228.646 30.286 228.222 29.8147 227.904 29.208C227.596 28.592 227.442 27.8873 227.442 27.094ZM233.546 27.122C233.546 26.646 233.453 26.24 233.266 25.904C233.08 25.5587 232.828 25.2973 232.51 25.12C232.193 24.9333 231.852 24.84 231.488 24.84C231.124 24.84 230.788 24.9287 230.48 25.106C230.172 25.2833 229.92 25.5447 229.724 25.89C229.538 26.226 229.444 26.6273 229.444 27.094C229.444 27.5607 229.538 27.9713 229.724 28.326C229.92 28.6713 230.172 28.9373 230.48 29.124C230.798 29.3107 231.134 29.404 231.488 29.404C231.852 29.404 232.193 29.3153 232.51 29.138C232.828 28.9513 233.08 28.69 233.266 28.354C233.453 28.0087 233.546 27.598 233.546 27.122ZM241.733 23.132C242.657 23.132 243.403 23.426 243.973 24.014C244.542 24.5927 244.827 25.4047 244.827 26.45V31H242.867V26.716C242.867 26.1 242.713 25.6287 242.405 25.302C242.097 24.966 241.677 24.798 241.145 24.798C240.603 24.798 240.174 24.966 239.857 25.302C239.549 25.6287 239.395 26.1 239.395 26.716V31H237.435V23.244H239.395V24.21C239.656 23.874 239.987 23.6127 240.389 23.426C240.799 23.23 241.247 23.132 241.733 23.132ZM249.523 27.094C249.523 26.31 249.677 25.6147 249.985 25.008C250.302 24.4013 250.727 23.9347 251.259 23.608C251.8 23.2813 252.402 23.118 253.065 23.118C253.643 23.118 254.147 23.2347 254.577 23.468C255.015 23.7013 255.365 23.9953 255.627 24.35V23.244H257.601V31H255.627V29.866C255.375 30.23 255.025 30.5333 254.577 30.776C254.138 31.0093 253.629 31.126 253.051 31.126C252.397 31.126 251.8 30.958 251.259 30.622C250.727 30.286 250.302 29.8147 249.985 29.208C249.677 28.592 249.523 27.8873 249.523 27.094ZM255.627 27.122C255.627 26.646 255.533 26.24 255.347 25.904C255.16 25.5587 254.908 25.2973 254.591 25.12C254.273 24.9333 253.933 24.84 253.569 24.84C253.205 24.84 252.869 24.9287 252.561 25.106C252.253 25.2833 252.001 25.5447 251.805 25.89C251.618 26.226 251.525 26.6273 251.525 27.094C251.525 27.5607 251.618 27.9713 251.805 28.326C252.001 28.6713 252.253 28.9373 252.561 29.124C252.878 29.3107 253.214 29.404 253.569 29.404C253.933 29.404 254.273 29.3153 254.591 29.138C254.908 28.9513 255.16 28.69 255.347 28.354C255.533 28.0087 255.627 27.598 255.627 27.122ZM264.107 31L261.475 27.696V31H259.515V20.64H261.475V26.534L264.079 23.244H266.627L263.211 27.136L266.655 31H264.107ZM275.013 23.244V31H273.039V30.02C272.787 30.356 272.455 30.622 272.045 30.818C271.643 31.0047 271.205 31.098 270.729 31.098C270.122 31.098 269.585 30.972 269.119 30.72C268.652 30.4587 268.283 30.0807 268.013 29.586C267.751 29.082 267.621 28.4847 267.621 27.794V23.244H269.581V27.514C269.581 28.13 269.735 28.606 270.043 28.942C270.351 29.2687 270.771 29.432 271.303 29.432C271.844 29.432 272.269 29.2687 272.577 28.942C272.885 28.606 273.039 28.13 273.039 27.514V23.244H275.013ZM281.244 23.132C282.168 23.132 282.915 23.426 283.484 24.014C284.054 24.5927 284.338 25.4047 284.338 26.45V31H282.378V26.716C282.378 26.1 282.224 25.6287 281.916 25.302C281.608 24.966 281.188 24.798 280.656 24.798C280.115 24.798 279.686 24.966 279.368 25.302C279.06 25.6287 278.906 26.1 278.906 26.716V31H276.946V23.244H278.906V24.21C279.168 23.874 279.499 23.6127 279.9 23.426C280.311 23.23 280.759 23.132 281.244 23.132ZM296.342 24.168C296.118 23.7573 295.81 23.4447 295.418 23.23C295.026 23.0153 294.569 22.908 294.046 22.908C293.468 22.908 292.954 23.0387 292.506 23.3C292.058 23.5613 291.708 23.9347 291.456 24.42C291.204 24.9053 291.078 25.4653 291.078 26.1C291.078 26.7533 291.204 27.3227 291.456 27.808C291.718 28.2933 292.077 28.6667 292.534 28.928C292.992 29.1893 293.524 29.32 294.13 29.32C294.877 29.32 295.488 29.124 295.964 28.732C296.44 28.3307 296.753 27.7753 296.902 27.066H293.542V25.568H298.834V27.276C298.704 27.9573 298.424 28.5873 297.994 29.166C297.565 29.7447 297.01 30.2113 296.328 30.566C295.656 30.9113 294.9 31.084 294.06 31.084C293.118 31.084 292.264 30.874 291.498 30.454C290.742 30.0247 290.145 29.432 289.706 28.676C289.277 27.92 289.062 27.0613 289.062 26.1C289.062 25.1387 289.277 24.28 289.706 23.524C290.145 22.7587 290.742 22.166 291.498 21.746C292.264 21.3167 293.113 21.102 294.046 21.102C295.148 21.102 296.104 21.3727 296.916 21.914C297.728 22.446 298.288 23.1973 298.596 24.168H296.342ZM303.728 31.126C302.982 31.126 302.31 30.9627 301.712 30.636C301.115 30.3 300.644 29.8287 300.298 29.222C299.962 28.6153 299.794 27.9153 299.794 27.122C299.794 26.3287 299.967 25.6287 300.312 25.022C300.667 24.4153 301.148 23.9487 301.754 23.622C302.361 23.286 303.038 23.118 303.784 23.118C304.531 23.118 305.208 23.286 305.814 23.622C306.421 23.9487 306.897 24.4153 307.242 25.022C307.597 25.6287 307.774 26.3287 307.774 27.122C307.774 27.9153 307.592 28.6153 307.228 29.222C306.874 29.8287 306.388 30.3 305.772 30.636C305.166 30.9627 304.484 31.126 303.728 31.126ZM303.728 29.418C304.083 29.418 304.414 29.334 304.722 29.166C305.04 28.9887 305.292 28.7273 305.478 28.382C305.665 28.0367 305.758 27.6167 305.758 27.122C305.758 26.3847 305.562 25.82 305.17 25.428C304.788 25.0267 304.316 24.826 303.756 24.826C303.196 24.826 302.725 25.0267 302.342 25.428C301.969 25.82 301.782 26.3847 301.782 27.122C301.782 27.8593 301.964 28.4287 302.328 28.83C302.702 29.222 303.168 29.418 303.728 29.418ZM312.656 31.126C311.909 31.126 311.237 30.9627 310.64 30.636C310.043 30.3 309.571 29.8287 309.226 29.222C308.89 28.6153 308.722 27.9153 308.722 27.122C308.722 26.3287 308.895 25.6287 309.24 25.022C309.595 24.4153 310.075 23.9487 310.682 23.622C311.289 23.286 311.965 23.118 312.712 23.118C313.459 23.118 314.135 23.286 314.742 23.622C315.349 23.9487 315.825 24.4153 316.17 25.022C316.525 25.6287 316.702 26.3287 316.702 27.122C316.702 27.9153 316.52 28.6153 316.156 29.222C315.801 29.8287 315.316 30.3 314.7 30.636C314.093 30.9627 313.412 31.126 312.656 31.126ZM312.656 29.418C313.011 29.418 313.342 29.334 313.65 29.166C313.967 28.9887 314.219 28.7273 314.406 28.382C314.593 28.0367 314.686 27.6167 314.686 27.122C314.686 26.3847 314.49 25.82 314.098 25.428C313.715 25.0267 313.244 24.826 312.684 24.826C312.124 24.826 311.653 25.0267 311.27 25.428C310.897 25.82 310.71 26.3847 310.71 27.122C310.71 27.8593 310.892 28.4287 311.256 28.83C311.629 29.222 312.096 29.418 312.656 29.418ZM321.178 23.118C321.756 23.118 322.265 23.2347 322.704 23.468C323.142 23.692 323.488 23.986 323.74 24.35V23.244H325.714V31.056C325.714 31.7747 325.569 32.414 325.28 32.974C324.99 33.5433 324.556 33.9913 323.978 34.318C323.399 34.654 322.699 34.822 321.878 34.822C320.776 34.822 319.871 34.5653 319.162 34.052C318.462 33.5387 318.065 32.8387 317.972 31.952H319.918C320.02 32.3067 320.24 32.5867 320.576 32.792C320.921 33.0067 321.336 33.114 321.822 33.114C322.391 33.114 322.853 32.9413 323.208 32.596C323.562 32.26 323.74 31.7467 323.74 31.056V29.852C323.488 30.216 323.138 30.5193 322.69 30.762C322.251 31.0047 321.747 31.126 321.178 31.126C320.524 31.126 319.927 30.958 319.386 30.622C318.844 30.286 318.415 29.8147 318.098 29.208C317.79 28.592 317.636 27.8873 317.636 27.094C317.636 26.31 317.79 25.6147 318.098 25.008C318.415 24.4013 318.84 23.9347 319.372 23.608C319.913 23.2813 320.515 23.118 321.178 23.118ZM323.74 27.122C323.74 26.646 323.646 26.24 323.46 25.904C323.273 25.5587 323.021 25.2973 322.704 25.12C322.386 24.9333 322.046 24.84 321.682 24.84C321.318 24.84 320.982 24.9287 320.674 25.106C320.366 25.2833 320.114 25.5447 319.918 25.89C319.731 26.226 319.638 26.6273 319.638 27.094C319.638 27.5607 319.731 27.9713 319.918 28.326C320.114 28.6713 320.366 28.9373 320.674 29.124C320.991 29.3107 321.327 29.404 321.682 29.404C322.046 29.404 322.386 29.3153 322.704 29.138C323.021 28.9513 323.273 28.69 323.46 28.354C323.646 28.0087 323.74 27.598 323.74 27.122ZM329.588 20.64V31H327.628V20.64H329.588ZM338.735 26.954C338.735 27.234 338.716 27.486 338.679 27.71H333.009C333.055 28.27 333.251 28.7087 333.597 29.026C333.942 29.3433 334.367 29.502 334.871 29.502C335.599 29.502 336.117 29.1893 336.425 28.564H338.539C338.315 29.3107 337.885 29.9267 337.251 30.412C336.616 30.888 335.837 31.126 334.913 31.126C334.166 31.126 333.494 30.9627 332.897 30.636C332.309 30.3 331.847 29.8287 331.511 29.222C331.184 28.6153 331.021 27.9153 331.021 27.122C331.021 26.3193 331.184 25.6147 331.511 25.008C331.837 24.4013 332.295 23.9347 332.883 23.608C333.471 23.2813 334.147 23.118 334.913 23.118C335.65 23.118 336.308 23.2767 336.887 23.594C337.475 23.9113 337.927 24.364 338.245 24.952C338.571 25.5307 338.735 26.198 338.735 26.954ZM336.705 26.394C336.695 25.89 336.513 25.4887 336.159 25.19C335.804 24.882 335.37 24.728 334.857 24.728C334.371 24.728 333.961 24.8773 333.625 25.176C333.298 25.4653 333.097 25.8713 333.023 26.394H336.705Z" fill="#160041"/>
</svg>
