<svg width="400" height="50" viewBox="0 0 400 50" fill="none" xmlns="http://www.w3.org/2000/svg">
<rect x="0.5" y="0.5" width="399" height="49" rx="24.5" fill="white" stroke="#DADADA"/>
<path fill-rule="evenodd" clip-rule="evenodd" d="M77.1836 26.1477C77.1836 25.3884 77.1155 24.6583 76.9889 23.9574H66.9043V28.0994H72.667C72.4187 29.4378 71.6643 30.5718 70.5303 31.3311V34.0178H73.9908C76.0155 32.1537 77.1836 29.4086 77.1836 26.1477Z" fill="#4285F4"/>
<path fill-rule="evenodd" clip-rule="evenodd" d="M66.9047 36.612C69.7957 36.612 72.2196 35.6531 73.9912 34.0178L70.5307 31.3311C69.5719 31.9736 68.3453 32.3532 66.9047 32.3532C64.1158 32.3532 61.7553 30.4696 60.9133 27.9388H57.3359V30.713C59.0978 34.2125 62.719 36.612 66.9047 36.612Z" fill="#34A853"/>
<path fill-rule="evenodd" clip-rule="evenodd" d="M60.913 27.9388C60.6989 27.2963 60.5772 26.61 60.5772 25.9043C60.5772 25.1986 60.6989 24.5123 60.913 23.8699V21.0956H57.3357C56.6105 22.5411 56.1968 24.1765 56.1968 25.9043C56.1968 27.6321 56.6105 29.2675 57.3357 30.713L60.913 27.9388Z" fill="#FBBC05"/>
<path fill-rule="evenodd" clip-rule="evenodd" d="M66.9047 19.4553C68.4768 19.4553 69.8882 19.9956 70.998 21.0566L74.0691 17.9854C72.2147 16.2576 69.7909 15.1966 66.9047 15.1966C62.719 15.1966 59.0978 17.5961 57.3359 21.0955L60.9133 23.8698C61.7553 21.3389 64.1158 19.4553 66.9047 19.4553Z" fill="#EA4335"/>
<path d="M102.62 21.228V31H100.66V24.644L98.042 31H96.558L93.926 24.644V31H91.966V21.228H94.192L97.3 28.494L100.408 21.228H102.62ZM104.054 27.094C104.054 26.31 104.208 25.6147 104.516 25.008C104.833 24.4013 105.258 23.9347 105.79 23.608C106.331 23.2813 106.933 23.118 107.596 23.118C108.174 23.118 108.678 23.2347 109.108 23.468C109.546 23.7013 109.896 23.9953 110.158 24.35V23.244H112.132V31H110.158V29.866C109.906 30.23 109.556 30.5333 109.108 30.776C108.669 31.0093 108.16 31.126 107.582 31.126C106.928 31.126 106.331 30.958 105.79 30.622C105.258 30.286 104.833 29.8147 104.516 29.208C104.208 28.592 104.054 27.8873 104.054 27.094ZM110.158 27.122C110.158 26.646 110.064 26.24 109.878 25.904C109.691 25.5587 109.439 25.2973 109.122 25.12C108.804 24.9333 108.464 24.84 108.1 24.84C107.736 24.84 107.4 24.9287 107.092 25.106C106.784 25.2833 106.532 25.5447 106.336 25.89C106.149 26.226 106.056 26.6273 106.056 27.094C106.056 27.5607 106.149 27.9713 106.336 28.326C106.532 28.6713 106.784 28.9373 107.092 29.124C107.409 29.3107 107.745 29.404 108.1 29.404C108.464 29.404 108.804 29.3153 109.122 29.138C109.439 28.9513 109.691 28.69 109.878 28.354C110.064 28.0087 110.158 27.598 110.158 27.122ZM117.014 31.126C116.379 31.126 115.81 31.014 115.306 30.79C114.802 30.5567 114.401 30.244 114.102 29.852C113.813 29.46 113.654 29.026 113.626 28.55H115.6C115.637 28.8487 115.782 29.096 116.034 29.292C116.295 29.488 116.617 29.586 117 29.586C117.373 29.586 117.663 29.5113 117.868 29.362C118.083 29.2127 118.19 29.0213 118.19 28.788C118.19 28.536 118.059 28.3493 117.798 28.228C117.546 28.0973 117.14 27.9573 116.58 27.808C116.001 27.668 115.525 27.5233 115.152 27.374C114.788 27.2247 114.471 26.996 114.2 26.688C113.939 26.38 113.808 25.9647 113.808 25.442C113.808 25.0127 113.929 24.6207 114.172 24.266C114.424 23.9113 114.779 23.6313 115.236 23.426C115.703 23.2207 116.249 23.118 116.874 23.118C117.798 23.118 118.535 23.3513 119.086 23.818C119.637 24.2753 119.94 24.896 119.996 25.68H118.12C118.092 25.372 117.961 25.1293 117.728 24.952C117.504 24.7653 117.201 24.672 116.818 24.672C116.463 24.672 116.188 24.7373 115.992 24.868C115.805 24.9987 115.712 25.1807 115.712 25.414C115.712 25.6753 115.843 25.876 116.104 26.016C116.365 26.1467 116.771 26.282 117.322 26.422C117.882 26.562 118.344 26.7067 118.708 26.856C119.072 27.0053 119.385 27.2387 119.646 27.556C119.917 27.864 120.057 28.2747 120.066 28.788C120.066 29.236 119.94 29.6373 119.688 29.992C119.445 30.3467 119.091 30.6267 118.624 30.832C118.167 31.028 117.63 31.126 117.014 31.126ZM128.997 23.244V31H127.023V30.02C126.771 30.356 126.44 30.622 126.029 30.818C125.628 31.0047 125.189 31.098 124.713 31.098C124.106 31.098 123.57 30.972 123.103 30.72C122.636 30.4587 122.268 30.0807 121.997 29.586C121.736 29.082 121.605 28.4847 121.605 27.794V23.244H123.565V27.514C123.565 28.13 123.719 28.606 124.027 28.942C124.335 29.2687 124.755 29.432 125.287 29.432C125.828 29.432 126.253 29.2687 126.561 28.942C126.869 28.606 127.023 28.13 127.023 27.514V23.244H128.997ZM135.523 31L132.891 27.696V31H130.931V20.64H132.891V26.534L135.495 23.244H138.043L134.627 27.136L138.071 31H135.523ZM152.075 23.132C153.027 23.132 153.792 23.426 154.371 24.014C154.959 24.5927 155.253 25.4047 155.253 26.45V31H153.293V26.716C153.293 26.1093 153.139 25.6473 152.831 25.33C152.523 25.0033 152.103 24.84 151.571 24.84C151.039 24.84 150.614 25.0033 150.297 25.33C149.989 25.6473 149.835 26.1093 149.835 26.716V31H147.875V26.716C147.875 26.1093 147.721 25.6473 147.413 25.33C147.105 25.0033 146.685 24.84 146.153 24.84C145.611 24.84 145.182 25.0033 144.865 25.33C144.557 25.6473 144.403 26.1093 144.403 26.716V31H142.443V23.244H144.403V24.182C144.655 23.8553 144.977 23.5987 145.369 23.412C145.77 23.2253 146.209 23.132 146.685 23.132C147.291 23.132 147.833 23.2627 148.309 23.524C148.785 23.776 149.153 24.14 149.415 24.616C149.667 24.168 150.031 23.8087 150.507 23.538C150.992 23.2673 151.515 23.132 152.075 23.132ZM164.322 26.954C164.322 27.234 164.304 27.486 164.266 27.71H158.596C158.643 28.27 158.839 28.7087 159.184 29.026C159.53 29.3433 159.954 29.502 160.458 29.502C161.186 29.502 161.704 29.1893 162.012 28.564H164.126C163.902 29.3107 163.473 29.9267 162.838 30.412C162.204 30.888 161.424 31.126 160.5 31.126C159.754 31.126 159.082 30.9627 158.484 30.636C157.896 30.3 157.434 29.8287 157.098 29.222C156.772 28.6153 156.608 27.9153 156.608 27.122C156.608 26.3193 156.772 25.6147 157.098 25.008C157.425 24.4013 157.882 23.9347 158.47 23.608C159.058 23.2813 159.735 23.118 160.5 23.118C161.238 23.118 161.896 23.2767 162.474 23.594C163.062 23.9113 163.515 24.364 163.832 24.952C164.159 25.5307 164.322 26.198 164.322 26.954ZM162.292 26.394C162.283 25.89 162.101 25.4887 161.746 25.19C161.392 24.882 160.958 24.728 160.444 24.728C159.959 24.728 159.548 24.8773 159.212 25.176C158.886 25.4653 158.685 25.8713 158.61 26.394H162.292ZM170.051 23.132C170.975 23.132 171.722 23.426 172.291 24.014C172.86 24.5927 173.145 25.4047 173.145 26.45V31H171.185V26.716C171.185 26.1 171.031 25.6287 170.723 25.302C170.415 24.966 169.995 24.798 169.463 24.798C168.922 24.798 168.492 24.966 168.175 25.302C167.867 25.6287 167.713 26.1 167.713 26.716V31H165.753V23.244H167.713V24.21C167.974 23.874 168.306 23.6127 168.707 23.426C169.118 23.23 169.566 23.132 170.051 23.132ZM178.047 23.118C178.626 23.118 179.134 23.2347 179.573 23.468C180.012 23.692 180.357 23.986 180.609 24.35V23.244H182.583V31.056C182.583 31.7747 182.438 32.414 182.149 32.974C181.86 33.5433 181.426 33.9913 180.847 34.318C180.268 34.654 179.568 34.822 178.747 34.822C177.646 34.822 176.74 34.5653 176.031 34.052C175.331 33.5387 174.934 32.8387 174.841 31.952H176.787C176.89 32.3067 177.109 32.5867 177.445 32.792C177.79 33.0067 178.206 33.114 178.691 33.114C179.26 33.114 179.722 32.9413 180.077 32.596C180.432 32.26 180.609 31.7467 180.609 31.056V29.852C180.357 30.216 180.007 30.5193 179.559 30.762C179.12 31.0047 178.616 31.126 178.047 31.126C177.394 31.126 176.796 30.958 176.255 30.622C175.714 30.286 175.284 29.8147 174.967 29.208C174.659 28.592 174.505 27.8873 174.505 27.094C174.505 26.31 174.659 25.6147 174.967 25.008C175.284 24.4013 175.709 23.9347 176.241 23.608C176.782 23.2813 177.384 23.118 178.047 23.118ZM180.609 27.122C180.609 26.646 180.516 26.24 180.329 25.904C180.142 25.5587 179.89 25.2973 179.573 25.12C179.256 24.9333 178.915 24.84 178.551 24.84C178.187 24.84 177.851 24.9287 177.543 25.106C177.235 25.2833 176.983 25.5447 176.787 25.89C176.6 26.226 176.507 26.6273 176.507 27.094C176.507 27.5607 176.6 27.9713 176.787 28.326C176.983 28.6713 177.235 28.9373 177.543 29.124C177.86 29.3107 178.196 29.404 178.551 29.404C178.915 29.404 179.256 29.3153 179.573 29.138C179.89 28.9513 180.142 28.69 180.329 28.354C180.516 28.0087 180.609 27.598 180.609 27.122ZM187.535 23.118C188.114 23.118 188.623 23.2347 189.061 23.468C189.5 23.692 189.845 23.986 190.097 24.35V23.244H192.071V31.056C192.071 31.7747 191.927 32.414 191.637 32.974C191.348 33.5433 190.914 33.9913 190.335 34.318C189.757 34.654 189.057 34.822 188.235 34.822C187.134 34.822 186.229 34.5653 185.519 34.052C184.819 33.5387 184.423 32.8387 184.329 31.952H186.275C186.378 32.3067 186.597 32.5867 186.933 32.792C187.279 33.0067 187.694 33.114 188.179 33.114C188.749 33.114 189.211 32.9413 189.565 32.596C189.92 32.26 190.097 31.7467 190.097 31.056V29.852C189.845 30.216 189.495 30.5193 189.047 30.762C188.609 31.0047 188.105 31.126 187.535 31.126C186.882 31.126 186.285 30.958 185.743 30.622C185.202 30.286 184.773 29.8147 184.455 29.208C184.147 28.592 183.993 27.8873 183.993 27.094C183.993 26.31 184.147 25.6147 184.455 25.008C184.773 24.4013 185.197 23.9347 185.729 23.608C186.271 23.2813 186.873 23.118 187.535 23.118ZM190.097 27.122C190.097 26.646 190.004 26.24 189.817 25.904C189.631 25.5587 189.379 25.2973 189.061 25.12C188.744 24.9333 188.403 24.84 188.039 24.84C187.675 24.84 187.339 24.9287 187.031 25.106C186.723 25.2833 186.471 25.5447 186.275 25.89C186.089 26.226 185.995 26.6273 185.995 27.094C185.995 27.5607 186.089 27.9713 186.275 28.326C186.471 28.6713 186.723 28.9373 187.031 29.124C187.349 29.3107 187.685 29.404 188.039 29.404C188.403 29.404 188.744 29.3153 189.061 29.138C189.379 28.9513 189.631 28.69 189.817 28.354C190.004 28.0087 190.097 27.598 190.097 27.122ZM201.308 23.244V31H199.334V30.02C199.082 30.356 198.75 30.622 198.34 30.818C197.938 31.0047 197.5 31.098 197.024 31.098C196.417 31.098 195.88 30.972 195.414 30.72C194.947 30.4587 194.578 30.0807 194.308 29.586C194.046 29.082 193.916 28.4847 193.916 27.794V23.244H195.876V27.514C195.876 28.13 196.03 28.606 196.338 28.942C196.646 29.2687 197.066 29.432 197.598 29.432C198.139 29.432 198.564 29.2687 198.872 28.942C199.18 28.606 199.334 28.13 199.334 27.514V23.244H201.308ZM207.539 23.132C208.463 23.132 209.21 23.426 209.779 24.014C210.349 24.5927 210.633 25.4047 210.633 26.45V31H208.673V26.716C208.673 26.1 208.519 25.6287 208.211 25.302C207.903 24.966 207.483 24.798 206.951 24.798C206.41 24.798 205.981 24.966 205.663 25.302C205.355 25.6287 205.201 26.1 205.201 26.716V31H203.241V23.244H205.201V24.21C205.463 23.874 205.794 23.6127 206.195 23.426C206.606 23.23 207.054 23.132 207.539 23.132ZM211.993 27.094C211.993 26.31 212.147 25.6147 212.455 25.008C212.773 24.4013 213.197 23.9347 213.729 23.608C214.271 23.2813 214.873 23.118 215.535 23.118C216.114 23.118 216.618 23.2347 217.047 23.468C217.486 23.7013 217.836 23.9953 218.097 24.35V23.244H220.071V31H218.097V29.866C217.845 30.23 217.495 30.5333 217.047 30.776C216.609 31.0093 216.1 31.126 215.521 31.126C214.868 31.126 214.271 30.958 213.729 30.622C213.197 30.286 212.773 29.8147 212.455 29.208C212.147 28.592 211.993 27.8873 211.993 27.094ZM218.097 27.122C218.097 26.646 218.004 26.24 217.817 25.904C217.631 25.5587 217.379 25.2973 217.061 25.12C216.744 24.9333 216.403 24.84 216.039 24.84C215.675 24.84 215.339 24.9287 215.031 25.106C214.723 25.2833 214.471 25.5447 214.275 25.89C214.089 26.226 213.995 26.6273 213.995 27.094C213.995 27.5607 214.089 27.9713 214.275 28.326C214.471 28.6713 214.723 28.9373 215.031 29.124C215.349 29.3107 215.685 29.404 216.039 29.404C216.403 29.404 216.744 29.3153 217.061 29.138C217.379 28.9513 217.631 28.69 217.817 28.354C218.004 28.0087 218.097 27.598 218.097 27.122ZM226.578 31L223.946 27.696V31H221.986V20.64H223.946V26.534L226.55 23.244H229.098L225.682 27.136L229.126 31H226.578ZM229.657 27.094C229.657 26.31 229.811 25.6147 230.119 25.008C230.437 24.4013 230.861 23.9347 231.393 23.608C231.935 23.2813 232.537 23.118 233.199 23.118C233.778 23.118 234.282 23.2347 234.711 23.468C235.15 23.7013 235.5 23.9953 235.761 24.35V23.244H237.735V31H235.761V29.866C235.509 30.23 235.159 30.5333 234.711 30.776C234.273 31.0093 233.764 31.126 233.185 31.126C232.532 31.126 231.935 30.958 231.393 30.622C230.861 30.286 230.437 29.8147 230.119 29.208C229.811 28.592 229.657 27.8873 229.657 27.094ZM235.761 27.122C235.761 26.646 235.668 26.24 235.481 25.904C235.295 25.5587 235.043 25.2973 234.725 25.12C234.408 24.9333 234.067 24.84 233.703 24.84C233.339 24.84 233.003 24.9287 232.695 25.106C232.387 25.2833 232.135 25.5447 231.939 25.89C231.753 26.226 231.659 26.6273 231.659 27.094C231.659 27.5607 231.753 27.9713 231.939 28.326C232.135 28.6713 232.387 28.9373 232.695 29.124C233.013 29.3107 233.349 29.404 233.703 29.404C234.067 29.404 234.408 29.3153 234.725 29.138C235.043 28.9513 235.295 28.69 235.481 28.354C235.668 28.0087 235.761 27.598 235.761 27.122ZM243.948 23.132C244.872 23.132 245.618 23.426 246.188 24.014C246.757 24.5927 247.042 25.4047 247.042 26.45V31H245.082V26.716C245.082 26.1 244.928 25.6287 244.62 25.302C244.312 24.966 243.892 24.798 243.36 24.798C242.818 24.798 242.389 24.966 242.072 25.302C241.764 25.6287 241.61 26.1 241.61 26.716V31H239.65V23.244H241.61V24.21C241.871 23.874 242.202 23.6127 242.604 23.426C243.014 23.23 243.462 23.132 243.948 23.132ZM251.737 27.094C251.737 26.31 251.891 25.6147 252.199 25.008C252.517 24.4013 252.941 23.9347 253.473 23.608C254.015 23.2813 254.617 23.118 255.279 23.118C255.858 23.118 256.362 23.2347 256.791 23.468C257.23 23.7013 257.58 23.9953 257.841 24.35V23.244H259.815V31H257.841V29.866C257.589 30.23 257.239 30.5333 256.791 30.776C256.353 31.0093 255.844 31.126 255.265 31.126C254.612 31.126 254.015 30.958 253.473 30.622C252.941 30.286 252.517 29.8147 252.199 29.208C251.891 28.592 251.737 27.8873 251.737 27.094ZM257.841 27.122C257.841 26.646 257.748 26.24 257.561 25.904C257.375 25.5587 257.123 25.2973 256.805 25.12C256.488 24.9333 256.147 24.84 255.783 24.84C255.419 24.84 255.083 24.9287 254.775 25.106C254.467 25.2833 254.215 25.5447 254.019 25.89C253.833 26.226 253.739 26.6273 253.739 27.094C253.739 27.5607 253.833 27.9713 254.019 28.326C254.215 28.6713 254.467 28.9373 254.775 29.124C255.093 29.3107 255.429 29.404 255.783 29.404C256.147 29.404 256.488 29.3153 256.805 29.138C257.123 28.9513 257.375 28.69 257.561 28.354C257.748 28.0087 257.841 27.598 257.841 27.122ZM266.322 31L263.69 27.696V31H261.73V20.64H263.69V26.534L266.294 23.244H268.842L265.426 27.136L268.87 31H266.322ZM277.227 23.244V31H275.253V30.02C275.001 30.356 274.67 30.622 274.259 30.818C273.858 31.0047 273.419 31.098 272.943 31.098C272.337 31.098 271.8 30.972 271.333 30.72C270.867 30.4587 270.498 30.0807 270.227 29.586C269.966 29.082 269.835 28.4847 269.835 27.794V23.244H271.795V27.514C271.795 28.13 271.949 28.606 272.257 28.942C272.565 29.2687 272.985 29.432 273.517 29.432C274.059 29.432 274.483 29.2687 274.791 28.942C275.099 28.606 275.253 28.13 275.253 27.514V23.244H277.227ZM283.459 23.132C284.383 23.132 285.13 23.426 285.699 24.014C286.269 24.5927 286.553 25.4047 286.553 26.45V31H284.593V26.716C284.593 26.1 284.439 25.6287 284.131 25.302C283.823 24.966 283.403 24.798 282.871 24.798C282.33 24.798 281.901 24.966 281.583 25.302C281.275 25.6287 281.121 26.1 281.121 26.716V31H279.161V23.244H281.121V24.21C281.383 23.874 281.714 23.6127 282.115 23.426C282.526 23.23 282.974 23.132 283.459 23.132ZM298.557 24.168C298.333 23.7573 298.025 23.4447 297.633 23.23C297.241 23.0153 296.784 22.908 296.261 22.908C295.682 22.908 295.169 23.0387 294.721 23.3C294.273 23.5613 293.923 23.9347 293.671 24.42C293.419 24.9053 293.293 25.4653 293.293 26.1C293.293 26.7533 293.419 27.3227 293.671 27.808C293.932 28.2933 294.292 28.6667 294.749 28.928C295.206 29.1893 295.738 29.32 296.345 29.32C297.092 29.32 297.703 29.124 298.179 28.732C298.655 28.3307 298.968 27.7753 299.117 27.066H295.757V25.568H301.049V27.276C300.918 27.9573 300.638 28.5873 300.209 29.166C299.78 29.7447 299.224 30.2113 298.543 30.566C297.871 30.9113 297.115 31.084 296.275 31.084C295.332 31.084 294.478 30.874 293.713 30.454C292.957 30.0247 292.36 29.432 291.921 28.676C291.492 27.92 291.277 27.0613 291.277 26.1C291.277 25.1387 291.492 24.28 291.921 23.524C292.36 22.7587 292.957 22.166 293.713 21.746C294.478 21.3167 295.328 21.102 296.261 21.102C297.362 21.102 298.319 21.3727 299.131 21.914C299.943 22.446 300.503 23.1973 300.811 24.168H298.557ZM305.943 31.126C305.197 31.126 304.525 30.9627 303.927 30.636C303.33 30.3 302.859 29.8287 302.513 29.222C302.177 28.6153 302.009 27.9153 302.009 27.122C302.009 26.3287 302.182 25.6287 302.527 25.022C302.882 24.4153 303.363 23.9487 303.969 23.622C304.576 23.286 305.253 23.118 305.999 23.118C306.746 23.118 307.423 23.286 308.029 23.622C308.636 23.9487 309.112 24.4153 309.457 25.022C309.812 25.6287 309.989 26.3287 309.989 27.122C309.989 27.9153 309.807 28.6153 309.443 29.222C309.089 29.8287 308.603 30.3 307.987 30.636C307.381 30.9627 306.699 31.126 305.943 31.126ZM305.943 29.418C306.298 29.418 306.629 29.334 306.937 29.166C307.255 28.9887 307.507 28.7273 307.693 28.382C307.88 28.0367 307.973 27.6167 307.973 27.122C307.973 26.3847 307.777 25.82 307.385 25.428C307.003 25.0267 306.531 24.826 305.971 24.826C305.411 24.826 304.94 25.0267 304.557 25.428C304.184 25.82 303.997 26.3847 303.997 27.122C303.997 27.8593 304.179 28.4287 304.543 28.83C304.917 29.222 305.383 29.418 305.943 29.418ZM314.871 31.126C314.124 31.126 313.452 30.9627 312.855 30.636C312.258 30.3 311.786 29.8287 311.441 29.222C311.105 28.6153 310.937 27.9153 310.937 27.122C310.937 26.3287 311.11 25.6287 311.455 25.022C311.81 24.4153 312.29 23.9487 312.897 23.622C313.504 23.286 314.18 23.118 314.927 23.118C315.674 23.118 316.35 23.286 316.957 23.622C317.564 23.9487 318.04 24.4153 318.385 25.022C318.74 25.6287 318.917 26.3287 318.917 27.122C318.917 27.9153 318.735 28.6153 318.371 29.222C318.016 29.8287 317.531 30.3 316.915 30.636C316.308 30.9627 315.627 31.126 314.871 31.126ZM314.871 29.418C315.226 29.418 315.557 29.334 315.865 29.166C316.182 28.9887 316.434 28.7273 316.621 28.382C316.808 28.0367 316.901 27.6167 316.901 27.122C316.901 26.3847 316.705 25.82 316.313 25.428C315.93 25.0267 315.459 24.826 314.899 24.826C314.339 24.826 313.868 25.0267 313.485 25.428C313.112 25.82 312.925 26.3847 312.925 27.122C312.925 27.8593 313.107 28.4287 313.471 28.83C313.844 29.222 314.311 29.418 314.871 29.418ZM323.393 23.118C323.971 23.118 324.48 23.2347 324.919 23.468C325.357 23.692 325.703 23.986 325.955 24.35V23.244H327.929V31.056C327.929 31.7747 327.784 32.414 327.495 32.974C327.205 33.5433 326.771 33.9913 326.193 34.318C325.614 34.654 324.914 34.822 324.093 34.822C322.991 34.822 322.086 34.5653 321.377 34.052C320.677 33.5387 320.28 32.8387 320.187 31.952H322.133C322.235 32.3067 322.455 32.5867 322.791 32.792C323.136 33.0067 323.551 33.114 324.037 33.114C324.606 33.114 325.068 32.9413 325.423 32.596C325.777 32.26 325.955 31.7467 325.955 31.056V29.852C325.703 30.216 325.353 30.5193 324.905 30.762C324.466 31.0047 323.962 31.126 323.393 31.126C322.739 31.126 322.142 30.958 321.601 30.622C321.059 30.286 320.63 29.8147 320.313 29.208C320.005 28.592 319.851 27.8873 319.851 27.094C319.851 26.31 320.005 25.6147 320.313 25.008C320.63 24.4013 321.055 23.9347 321.587 23.608C322.128 23.2813 322.73 23.118 323.393 23.118ZM325.955 27.122C325.955 26.646 325.861 26.24 325.675 25.904C325.488 25.5587 325.236 25.2973 324.919 25.12C324.601 24.9333 324.261 24.84 323.897 24.84C323.533 24.84 323.197 24.9287 322.889 25.106C322.581 25.2833 322.329 25.5447 322.133 25.89C321.946 26.226 321.853 26.6273 321.853 27.094C321.853 27.5607 321.946 27.9713 322.133 28.326C322.329 28.6713 322.581 28.9373 322.889 29.124C323.206 29.3107 323.542 29.404 323.897 29.404C324.261 29.404 324.601 29.3153 324.919 29.138C325.236 28.9513 325.488 28.69 325.675 28.354C325.861 28.0087 325.955 27.598 325.955 27.122ZM331.803 20.64V31H329.843V20.64H331.803ZM340.949 26.954C340.949 27.234 340.931 27.486 340.893 27.71H335.223C335.27 28.27 335.466 28.7087 335.811 29.026C336.157 29.3433 336.581 29.502 337.085 29.502C337.813 29.502 338.331 29.1893 338.639 28.564H340.753C340.529 29.3107 340.1 29.9267 339.465 30.412C338.831 30.888 338.051 31.126 337.127 31.126C336.381 31.126 335.709 30.9627 335.111 30.636C334.523 30.3 334.061 29.8287 333.725 29.222C333.399 28.6153 333.235 27.9153 333.235 27.122C333.235 26.3193 333.399 25.6147 333.725 25.008C334.052 24.4013 334.509 23.9347 335.097 23.608C335.685 23.2813 336.362 23.118 337.127 23.118C337.865 23.118 338.523 23.2767 339.101 23.594C339.689 23.9113 340.142 24.364 340.459 24.952C340.786 25.5307 340.949 26.198 340.949 26.954ZM338.919 26.394C338.91 25.89 338.728 25.4887 338.373 25.19C338.019 24.882 337.585 24.728 337.071 24.728C336.586 24.728 336.175 24.8773 335.839 25.176C335.513 25.4653 335.312 25.8713 335.237 26.394H338.919Z" fill="#160041"/>
</svg>
