<svg width="77" height="74" viewBox="0 0 77 74" fill="none" xmlns="http://www.w3.org/2000/svg">
<path d="M34.8434 2.10466L1.35045 34.132C0.922408 34.5402 0.582775 35.0253 0.351033 35.5593C0.119292 36.0934 0 36.666 0 37.2443C0 37.8226 0.119292 38.3952 0.351033 38.9293C0.582775 39.4634 0.922408 39.9484 1.35045 40.3566L34.8434 72.3837C36.6441 74.1053 39.5524 74.1053 41.3529 72.3837L55.3962 58.9552C57.0089 57.413 57.0089 54.9129 55.3962 53.371C53.7836 51.8288 51.1691 51.8288 49.5565 53.371L38.9104 63.5508C38.4622 63.9794 37.7821 63.9794 37.3339 63.5508L10.5872 37.9751C10.1391 37.5465 10.1391 36.8961 10.5872 36.4675L37.3339 10.8916C37.7821 10.4632 38.4622 10.4632 38.9104 10.8916L49.5565 21.0717C51.1691 22.6138 53.7836 22.6138 55.3962 21.0717C57.0089 19.5295 57.0089 17.0296 55.3962 15.4875L41.3544 2.06071C39.5465 0.375869 36.637 0.389566 34.8434 2.10466Z" fill="url(#paint0_linear)"/>
<path d="M34.8434 2.10457L1.35045 34.1319C0.922408 34.5401 0.582775 35.0251 0.351033 35.5592C0.119292 36.0933 0 36.6659 0 37.2442C0 37.8225 0.119292 38.3951 0.351033 38.9291C0.582775 39.4632 0.922408 39.9483 1.35045 40.3564L34.8434 72.3835C36.6441 74.1051 39.5524 74.1051 41.3529 72.3835L55.3962 58.955C57.0089 57.4129 57.0089 54.9127 55.3962 53.3708C53.7836 51.8287 51.1691 51.8287 49.5565 53.3708L38.9104 63.5507C38.4622 63.9793 37.7821 63.9793 37.3339 63.5507L10.5872 37.975C10.1391 37.5464 10.1391 36.896 10.5872 36.4674L37.3339 10.8915C38.4497 9.97086 40.2708 8.10623 42.9443 7.66961C44.9315 7.34572 47.1041 8.05915 49.4619 9.80991L41.3547 2.06034C39.5465 0.375784 36.6373 0.389482 34.8434 2.10457Z" fill="url(#paint1_linear)"/>
<path d="M58.6375 50.3921C60.2502 51.9342 62.8647 51.9342 64.4773 50.3921L74.8362 40.4868C75.2643 40.0786 75.6039 39.5936 75.8357 39.0595C76.0674 38.5255 76.1867 37.9529 76.1867 37.3746C76.1867 36.7963 76.0674 36.2237 75.8357 35.6896C75.6039 35.1555 75.2643 34.6705 74.8362 34.2623L64.3873 24.3057C62.7708 22.7655 60.1553 22.7678 58.5418 24.3108C56.9292 25.8529 56.9292 28.3528 58.5418 29.895L65.5991 36.6434C66.0473 37.0721 66.0473 37.7224 65.5991 38.1511L58.6375 44.8079C57.0249 46.3501 57.0249 48.8502 58.6375 50.3921Z" fill="url(#paint2_linear)"/>
<path d="M38.2651 46.0517C43.2595 46.0517 47.3083 42.1801 47.3083 37.4043C47.3083 32.6285 43.2595 28.757 38.2651 28.757C33.2707 28.757 29.2219 32.6285 29.2219 37.4043C29.2219 42.1801 33.2707 46.0517 38.2651 46.0517Z" fill="url(#paint3_linear)"/>
<defs>
<linearGradient id="paint0_linear" x1="35.1533" y1="0.807616" x2="66.2068" y2="20.6234" gradientUnits="userSpaceOnUse">
<stop stop-color="#4285EB"/>
<stop offset="1" stop-color="#2EC7FF"/>
</linearGradient>
<linearGradient id="paint1_linear" x1="39.4225" y1="0.807496" x2="24.9811" y2="78.7982" gradientUnits="userSpaceOnUse">
<stop stop-color="#29CDFF"/>
<stop offset="0.3786" stop-color="#148EFF"/>
<stop offset="1" stop-color="#0A60FF"/>
</linearGradient>
<linearGradient id="paint2_linear" x1="70.4721" y1="19.4679" x2="51.2696" y2="50.8477" gradientUnits="userSpaceOnUse">
<stop stop-color="#FA816E"/>
<stop offset="0.41473" stop-color="#F74A5C"/>
<stop offset="1" stop-color="#F51D2C"/>
</linearGradient>
<linearGradient id="paint3_linear" x1="41.5438" y1="22.5843" x2="35.2795" y2="48.7681" gradientUnits="userSpaceOnUse">
<stop stop-color="#FA8E7D"/>
<stop offset="0.51264" stop-color="#F74A5C"/>
<stop offset="1" stop-color="#F51D2C"/>
</linearGradient>
</defs>
</svg>
