<svg width="25" height="25" viewBox="0 0 25 25" fill="none" xmlns="http://www.w3.org/2000/svg">
<circle cx="12.5" cy="12.5" r="12.5" fill="#0A60FF"/>
<path d="M11.225 6.55C12.0953 6.54995 12.9484 6.79283 13.6881 7.25132C14.4279 7.7098 15.0249 8.36567 15.4121 9.14511C15.7993 9.92454 15.9613 10.7966 15.8797 11.6631C15.7982 12.5295 15.4764 13.3561 14.9506 14.0496L18.4755 17.5745C18.5885 17.6884 18.6544 17.8407 18.6601 18.0011C18.6657 18.1614 18.6107 18.318 18.506 18.4396C18.4012 18.5612 18.2545 18.6388 18.0951 18.6569C17.9357 18.6751 17.7753 18.6325 17.6459 18.5376L17.5745 18.4755L14.0496 14.9506C13.4584 15.3987 12.7692 15.6997 12.0387 15.8287C11.3083 15.9578 10.5576 15.9111 9.84874 15.6927C9.13987 15.4743 8.49314 15.0903 7.96201 14.5725C7.43087 14.0548 7.03056 13.418 6.79416 12.7149C6.55776 12.0118 6.49205 11.2626 6.60247 10.5291C6.71288 9.79561 6.99625 9.09892 7.42915 8.49659C7.86206 7.89426 8.43208 7.40358 9.09211 7.06511C9.75214 6.72663 10.4832 6.55006 11.225 6.55ZM11.225 7.825C10.3233 7.825 9.45846 8.18322 8.82084 8.82084C8.18321 9.45846 7.825 10.3233 7.825 11.225C7.825 12.1267 8.18321 12.9915 8.82084 13.6292C9.45846 14.2668 10.3233 14.625 11.225 14.625C12.1267 14.625 12.9915 14.2668 13.6292 13.6292C14.2668 12.9915 14.625 12.1267 14.625 11.225C14.625 10.3233 14.2668 9.45846 13.6292 8.82084C12.9915 8.18322 12.1267 7.825 11.225 7.825Z" fill="white"/>
</svg>
