<svg width="128" height="36" viewBox="0 0 128 36" fill="none" xmlns="http://www.w3.org/2000/svg">
<g filter="url(#filter0_d)">
<rect x="89" y="4.66036" width="31" height="19.2452" rx="4" fill="#F74A5C"/>
<path d="M108.534 13.683C109.256 14.0554 109.256 15.0879 108.534 15.4604L102.416 18.6169C101.75 18.9603 100.957 18.4771 100.957 17.7282L100.957 11.4151C100.957 10.6662 101.75 10.183 102.416 10.5264L108.534 13.683Z" fill="white"/>
</g>
<path d="M11.232 7.92716L6.984 16.1172V20.4912H4.464V16.1172L0.198 7.92716H3.042L5.742 13.6692L8.424 7.92716H11.232ZM17.1134 20.6532C16.1534 20.6532 15.2894 20.4432 14.5214 20.0232C13.7534 19.5912 13.1474 18.9852 12.7034 18.2052C12.2714 17.4252 12.0554 16.5252 12.0554 15.5052C12.0554 14.4852 12.2774 13.5852 12.7214 12.8052C13.1774 12.0252 13.7954 11.4252 14.5754 11.0052C15.3554 10.5732 16.2254 10.3572 17.1854 10.3572C18.1454 10.3572 19.0154 10.5732 19.7954 11.0052C20.5754 11.4252 21.1874 12.0252 21.6314 12.8052C22.0874 13.5852 22.3154 14.4852 22.3154 15.5052C22.3154 16.5252 22.0814 17.4252 21.6134 18.2052C21.1574 18.9852 20.5334 19.5912 19.7414 20.0232C18.9614 20.4432 18.0854 20.6532 17.1134 20.6532ZM17.1134 18.4572C17.5694 18.4572 17.9954 18.3492 18.3914 18.1332C18.7994 17.9052 19.1234 17.5692 19.3634 17.1252C19.6034 16.6812 19.7234 16.1412 19.7234 15.5052C19.7234 14.5572 19.4714 13.8312 18.9674 13.3272C18.4754 12.8112 17.8694 12.5532 17.1494 12.5532C16.4294 12.5532 15.8234 12.8112 15.3314 13.3272C14.8514 13.8312 14.6114 14.5572 14.6114 15.5052C14.6114 16.4532 14.8454 17.1852 15.3134 17.7012C15.7934 18.2052 16.3934 18.4572 17.1134 18.4572ZM33.5779 10.5192V20.4912H31.0399V19.2312C30.7159 19.6632 30.2899 20.0052 29.7619 20.2572C29.2459 20.4972 28.6819 20.6172 28.0699 20.6172C27.2899 20.6172 26.5999 20.4552 25.9999 20.1312C25.3999 19.7952 24.9259 19.3092 24.5779 18.6732C24.2419 18.0252 24.0739 17.2572 24.0739 16.3692V10.5192H26.5939V16.0092C26.5939 16.8012 26.7919 17.4132 27.1879 17.8452C27.5839 18.2652 28.1239 18.4752 28.8079 18.4752C29.5039 18.4752 30.0499 18.2652 30.4459 17.8452C30.8419 17.4132 31.0399 16.8012 31.0399 16.0092V10.5192H33.5779ZM38.9983 12.5892V17.4132C38.9983 17.7492 39.0763 17.9952 39.2323 18.1512C39.4003 18.2952 39.6763 18.3672 40.0603 18.3672H41.2303V20.4912H39.6463C37.5223 20.4912 36.4603 19.4592 36.4603 17.3952V12.5892H35.2723V10.5192H36.4603V8.05316H38.9983V10.5192H41.2303V12.5892H38.9983ZM52.4568 10.5192V20.4912H49.9188V19.2312C49.5948 19.6632 49.1688 20.0052 48.6408 20.2572C48.1248 20.4972 47.5608 20.6172 46.9488 20.6172C46.1688 20.6172 45.4788 20.4552 44.8788 20.1312C44.2788 19.7952 43.8048 19.3092 43.4568 18.6732C43.1208 18.0252 42.9528 17.2572 42.9528 16.3692V10.5192H45.4728V16.0092C45.4728 16.8012 45.6708 17.4132 46.0668 17.8452C46.4628 18.2652 47.0028 18.4752 47.6868 18.4752C48.3828 18.4752 48.9288 18.2652 49.3248 17.8452C49.7208 17.4132 49.9188 16.8012 49.9188 16.0092V10.5192H52.4568ZM57.4632 11.9772C57.7872 11.4972 58.2312 11.1072 58.7952 10.8072C59.3712 10.5072 60.0252 10.3572 60.7572 10.3572C61.6092 10.3572 62.3772 10.5672 63.0612 10.9872C63.7572 11.4072 64.3032 12.0072 64.6992 12.7872C65.1072 13.5552 65.3112 14.4492 65.3112 15.4692C65.3112 16.4892 65.1072 17.3952 64.6992 18.1872C64.3032 18.9672 63.7572 19.5732 63.0612 20.0052C62.3772 20.4372 61.6092 20.6532 60.7572 20.6532C60.0132 20.6532 59.3592 20.5092 58.7952 20.2212C58.2432 19.9212 57.7992 19.5372 57.4632 19.0692V20.4912H54.9432V7.17116H57.4632V11.9772ZM62.7372 15.4692C62.7372 14.8692 62.6112 14.3532 62.3592 13.9212C62.1192 13.4772 61.7952 13.1412 61.3872 12.9132C60.9912 12.6852 60.5592 12.5712 60.0912 12.5712C59.6352 12.5712 59.2032 12.6912 58.7952 12.9312C58.3992 13.1592 58.0752 13.4952 57.8232 13.9392C57.5832 14.3832 57.4632 14.9052 57.4632 15.5052C57.4632 16.1052 57.5832 16.6272 57.8232 17.0712C58.0752 17.5152 58.3992 17.8572 58.7952 18.0972C59.2032 18.3252 59.6352 18.4392 60.0912 18.4392C60.5592 18.4392 60.9912 18.3192 61.3872 18.0792C61.7952 17.8392 62.1192 17.4972 62.3592 17.0532C62.6112 16.6092 62.7372 16.0812 62.7372 15.4692ZM76.4124 15.2892C76.4124 15.6492 76.3884 15.9732 76.3404 16.2612H69.0504C69.1104 16.9812 69.3624 17.5452 69.8064 17.9532C70.2504 18.3612 70.7964 18.5652 71.4444 18.5652C72.3804 18.5652 73.0464 18.1632 73.4424 17.3592H76.1604C75.8724 18.3192 75.3204 19.1112 74.5044 19.7352C73.6884 20.3472 72.6864 20.6532 71.4984 20.6532C70.5384 20.6532 69.6744 20.4432 68.9064 20.0232C68.1504 19.5912 67.5564 18.9852 67.1244 18.2052C66.7044 17.4252 66.4944 16.5252 66.4944 15.5052C66.4944 14.4732 66.7044 13.5672 67.1244 12.7872C67.5444 12.0072 68.1324 11.4072 68.8884 10.9872C69.6444 10.5672 70.5144 10.3572 71.4984 10.3572C72.4464 10.3572 73.2924 10.5612 74.0364 10.9692C74.7924 11.3772 75.3744 11.9592 75.7824 12.7152C76.2024 13.4592 76.4124 14.3172 76.4124 15.2892ZM73.8024 14.5692C73.7904 13.9212 73.5564 13.4052 73.1004 13.0212C72.6444 12.6252 72.0864 12.4272 71.4264 12.4272C70.8024 12.4272 70.2744 12.6192 69.8424 13.0032C69.4224 13.3752 69.1644 13.8972 69.0684 14.5692H73.8024Z" fill="#160041"/>
<defs>
<filter id="filter0_d" x="81" y="0.660362" width="47" height="35.2452" filterUnits="userSpaceOnUse" color-interpolation-filters="sRGB">
<feFlood flood-opacity="0" result="BackgroundImageFix"/>
<feColorMatrix in="SourceAlpha" type="matrix" values="0 0 0 0 0 0 0 0 0 0 0 0 0 0 0 0 0 0 127 0" result="hardAlpha"/>
<feOffset dy="4"/>
<feGaussianBlur stdDeviation="4"/>
<feComposite in2="hardAlpha" operator="out"/>
<feColorMatrix type="matrix" values="0 0 0 0 0 0 0 0 0 0 0 0 0 0 0 0 0 0 0.15 0"/>
<feBlend mode="normal" in2="BackgroundImageFix" result="effect1_dropShadow"/>
<feBlend mode="normal" in="SourceGraphic" in2="effect1_dropShadow" result="shape"/>
</filter>
</defs>
</svg>
